PathFileType	4	(X/Y/Z)	Patient4_TMGait_0pt2_02_right_04.trc.trc
DataRate	CameraRate	NumFrames	NumMarkers	Units	OrigDataRate	OrigDataStartFrame	OrigNumFrames
43.209876543210	43.209876543210	4	33	mm	43.209876543210	53	       141
Frame#	Time	R.Midfoot.Superior			Sacral			L.Shoulder			Chest			R.Shoulder			Neck			R.ASIS			L.ASIS			R.Thigh.Superior			R.Thigh.Lateral			R.Thigh.Inferior			R.Patella			L.Thigh.Superior			L.Thigh.Lateral			L.Thigh.Inferior			L.Patella			L.Shank.Superior			L.Shank.Lateral			L.Shank.Inferior			R.Shank.Superior			R.Shank.Lateral			R.Shank.Inferior			R.Heel			R.Midfoot.Lateral			R.Toe			L.Heel			L.Midfoot.Lateral			L.Midfoot.Superior			L.Toe			L.Elbow			L.Wrist			R.Elbow			R.Wrist			
		X1	Y1	Z1	X2	Y2	Z2	X3	Y3	Z3	X4	Y4	Z4	X5	Y5	Z5	X6	Y6	Z6	X7	Y7	Z7	X8	Y8	Z8	X9	Y9	Z9	X10	Y10	Z10	X11	Y11	Z11	X12	Y12	Z12	X13	Y13	Z13	X14	Y14	Z14	X15	Y15	Z15	X16	Y16	Z16	X17	Y17	Z17	X18	Y18	Z18	X19	Y19	Z19	X20	Y20	Z20	X21	Y21	Z21	X22	Y22	Z22	X23	Y23	Z23	X24	Y24	Z24	X25	Y25	Z25	X26	Y26	Z26	X27	Y27	Z27	X28	Y28	Z28	X29	Y29	Z29	X30	Y30	Z30	X31	Y31	Z31	X32	Y32	Z32	X33	Y33	Z33	

53	8.853428571429	917.012018661186	96.237319545948	578.710494474364	742.868156956260	988.145232128430	556.156896322326	927.649575318388	1404.007272991766	349.597494227158	1028.723661270302	1346.216445764687	515.581270267729	943.509776350338	1428.815063991329	684.402735245499	909.726696463453	1475.026440593264	502.134495253115	975.291775883708	926.355781802463	672.567185974000	958.511585821955	940.556921862715	399.530993055471	1026.739981667648	729.599015535704	621.042408590759	954.838892130659	608.328770524579	671.983643398775	1030.064098243491	567.117070910727	583.327455880475	1033.877498399580	468.497248231509	582.758575639292	1037.258709137721	753.592394574351	421.531471539816	989.485412673653	633.827755305501	334.359892715750	1088.798345478604	564.455795115402	397.180949327705	1096.356210512203	475.176514923103	380.885485038921	1023.778872538805	415.693283566030	362.332638733796	879.640718874622	392.072885617022	308.062852705886	854.490753355724	257.531553667686	342.098065876856	983.392206222316	383.113521571108	584.573522297766	894.064360406790	291.870873901549	643.102155996138	910.185810541600	195.991740666522	573.375074667265	744.428263332042	49.136032239833	541.453998128026	826.683949230627	40.153638917809	616.009562877001	1034.721412376912	38.686419341229	610.190188657228	663.415262448884	227.857321422306	376.744117021669	702.977192816555	169.525158223236	293.243351617364	807.809960175824	146.820569275093	308.207314531491	852.323686922634	27.781077183205	275.545380521077	871.876723994578	1045.852786081226	261.684039421569	876.013595967079	786.934868882932	277.515516734349	967.870100508879	1100.321674643149	849.955860648124	1204.489275760750	1002.012368644725	862.350051497497	
54	8.876571428571	912.514672833544	96.262539545832	578.866640472453	741.867352869117	987.100956661792	560.134174866741	923.438532833140	1403.083708817150	351.246651326812	1027.383630747398	1344.710797281225	515.277535808037	945.634017396640	1427.309876076635	685.796035714952	908.454762502605	1473.984434337267	504.155115511790	975.591759189597	925.008134258998	673.368897251030	955.379369483727	939.759390975445	400.532286933878	1026.670582827297	728.199234790035	621.559888086410	955.007744597080	606.983862986482	672.527979577695	1029.673136840808	565.973324362717	583.131828313072	1033.311256184395	467.097345833124	582.181124058812	1038.929023027694	757.520200431834	424.753853344465	996.016256850816	636.386832380161	337.104474611967	1096.533497882689	569.609961328834	401.370277964144	1106.269731241963	479.756885745461	384.561723613201	1033.653127383188	419.207463919553	365.365854794632	888.835690948405	396.274674100779	311.510950253712	863.775447826773	261.267171704134	344.645480252806	981.955194607210	381.922841049046	584.288367146729	892.117317084339	291.359795412068	643.253032776555	906.878713668149	195.468046348209	573.351584585571	739.789984694505	49.435482609946	541.640992164466	822.095776931048	40.234273495436	616.194475072950	1030.112875908052	38.582936705031	610.211772831262	672.583278898319	232.113786343943	379.636104776464	711.765099006800	174.592923095890	295.309463047548	816.762382492578	150.817123474491	310.172568738369	859.958995316092	28.551201064914	275.319841081625	850.783712113610	1048.101137030650	264.815307614524	839.919727224325	789.351536993761	282.920853137495	986.764845583381	1100.129596384983	849.919422957290	1230.191695328150	1020.041448214478	854.598192550157	
55	8.899714285714	907.962659499618	96.298758011748	579.086127727036	740.885295955388	986.825043264793	563.903163595001	919.192626065398	1403.057217702892	352.900741518715	1026.077817961591	1343.817886869888	514.742715978115	948.068479096324	1426.379251009400	686.981602478744	907.244736721459	1473.614399136529	506.136830306835	975.791861171210	924.154624141190	673.722966067468	952.033146121684	939.662181784988	401.143406567362	1025.899631499726	727.029768887019	621.874024842266	954.110255710369	606.140637466634	673.001901162242	1028.105113699195	565.067757840475	582.955213322079	1031.398330095251	466.115084698461	581.710043802056	1039.560001991607	761.684594155018	427.417771414985	1000.780075807576	639.309663414019	339.508717171453	1102.289748606394	574.885532725725	404.920679509105	1114.128570558333	484.715048320260	387.765519856720	1042.006643374604	422.927679804635	368.046573230019	896.957433033764	399.136277934080	314.501973384098	873.395067198392	263.559907590342	346.986550230967	979.440340348045	381.155940154258	584.110879212808	889.358711417226	291.048425669158	643.497923415256	903.106099587738	195.165915462309	573.435042385656	735.104072074884	49.694998280114	541.900259744782	817.472480237706	40.280102045593	616.413225850837	1025.468447081251	38.523820758908	610.232516767377	682.448992082518	231.671117619215	382.024807983620	722.464046411886	176.171125992394	296.939814168449	827.680422228713	153.615527660342	311.983128040423	872.147555690133	29.911407987647	274.945069541597	830.915189777425	1052.109148224280	267.629798059510	807.346261446285	794.268763890575	288.635310307954	1006.038065685853	1101.350865207659	849.071087766917	1254.543877159488	1039.462402104463	845.480062279419	
56	8.922857142857	903.363069706003	96.341860057373	579.350093955970	739.946970921428	987.341021527703	567.456735990934	914.933678723399	1403.933101074842	354.553046851616	1024.817202808886	1343.589975874845	513.981914545662	950.787510993918	1426.083191725254	687.931555450021	906.092247690731	1473.939339792024	508.057748543866	975.925239601050	923.815248067192	673.629920170378	948.495787159948	940.320107286218	401.384111483976	1024.450117317473	726.131205626372	621.958008424901	952.202686829915	605.819848718443	673.406298218790	1025.405616699872	564.424567460091	582.799148051507	1028.180421624501	465.566974945120	581.367771599697	1039.134111725654	765.945650696096	429.419340501393	1003.646382139515	642.468423762453	341.449202712233	1105.928931525526	580.083873333168	407.667571007433	1119.768868068675	489.909428353862	390.327575448430	1048.775045501699	426.721923646093	370.197955696075	904.136801782899	400.365707506666	316.731185308181	883.601614551437	264.194514798169	348.864087390271	975.882176598219	380.829311589134	584.055476079690	885.802618203367	290.954238144423	643.828802298030	898.888308525362	195.095845157481	573.616287407846	730.383517018255	49.926922650680	542.218578560355	812.818732446489	40.304118016769	616.651758223350	1020.793400029121	38.494765050130	610.254001730487	693.472100241285	226.331202186630	383.549957036905	735.485208994786	173.985151663602	297.864160449741	840.893404799493	154.907558774641	313.408517809551	889.205060040335	31.756117151434	274.401652205067	812.455376038653	1057.644076235217	270.202425659545	778.494484734309	801.107308443297	294.542398760685	1025.466788743704	1104.079859499915	847.424402573958	1277.308277265232	1060.109695979557	835.118688358094	
